<svg width="730" height="881" viewBox="0 0 730 881" fill="none" xmlns="http://www.w3.org/2000/svg">
<path d="M289.496 880.972C187.88 880.902 89.4123 845.711 10.7703 781.358C-67.8716 717.006 -121.853 627.45 -142.03 527.857C-162.208 428.265 -147.341 324.759 -99.9479 234.873C-52.5548 144.986 24.4509 74.243 118.026 34.627C225.636 -10.6671 346.825 -11.3984 454.974 32.5938C563.122 76.586 649.389 161.705 694.826 269.254C740.264 376.804 741.156 497.991 697.307 606.199C653.459 714.406 568.455 800.786 460.966 846.366C406.719 869.319 348.399 881.089 289.496 880.972ZM289.496 60.7345C80.1067 60.7345 -90.2446 231.086 -90.2446 440.475C-90.2446 649.864 80.1067 820.237 289.496 820.237C498.885 820.237 669.237 649.886 669.237 440.496C669.237 231.107 498.885 60.7559 289.496 60.7559V60.7345Z" fill="url(#paint0_linear_78_135)"/>
<defs>
<linearGradient id="paint0_linear_78_135" x1="-151.001" y1="440.496" x2="729.993" y2="440.496" gradientUnits="userSpaceOnUse">
<stop offset="0.2" stop-color="#80ED99"/>
<stop offset="1" stop-color="#22577A"/>
</linearGradient>
</defs>
</svg>
