<svg id="Capa_1" data-name="Capa 1" xmlns="http://www.w3.org/2000/svg" viewBox="0 0 690.23 644.86"><defs><style>.cls-1{fill:#38a3a5;}</style></defs><path class="cls-1" d="M194.77,554.25c6.56-17.34,19.47-23.84,37.46-22.69a233.7,233.7,0,0,0,30.29,0c20.6-1.38,36.84,9.9,36.26,35,6.17,0,12.36.11,18.55,0,29.93-.62,59.14,3.29,86.93,14.8,10.73,4.44,21.57,9.23,31.23,15.58,23.76,15.62,49.75,22.61,77.83,25,29.71,2.48,59.4,5.93,88.86,10.53,30.82,4.82,51,30.26,50.92,61.55,0,.86.13,1.73.32,4.09,10.14-1.94,20-3.49,29.66-5.72,21.64-5,41-15.58,60.62-25.41q39.39-19.73,78.72-39.56a42.92,42.92,0,0,1,61.05,26.36c.43,1.47,1,2.9,1.53,4.35v14.83c-3.8,10.33-7.92,20.31-17.82,26.74q-74.79,48.6-149.4,97.45a96.68,96.68,0,0,1-43.87,15.86q-109.53,10.83-219.1,21.4c-16.77,1.63-33.22.12-48.79-6.78-25.42-11.27-50.74-22.74-76.12-34.08-10.17-4.55-20.38-9-31.33-13.82,0,4.13,0,7.24,0,10.35-.09,19.62-11.73,31.4-31.37,31.59-12.12.11-24.28-.51-36.37.15-18,1-30.33-6-36-23.49Zm103.79,203c2.54,1.18,4.75,2.25,7,3.25,34.6,15.47,69.32,30.69,103.76,46.5,14.37,6.6,29.1,8.66,44.59,7.16,69-6.71,138.08-13.53,207.14-20.07,17-1.61,33-5.35,47.55-15C756.93,747.22,805.51,715.7,854,684c10.85-7.1,13.9-19.71,7.46-30.49-6.12-10.23-18.94-13.59-30.05-8-28.45,14.3-56.86,28.71-85.46,42.74-13.26,6.51-26.69,12.83-40.44,18.21-23.93,9.35-49.22,11.42-74.64,12.85-46.18,2.61-92.34,5.74-138.51,8.56-7.25.44-11.94-3.42-12.24-9.52s3.67-10.14,11.15-10.61q53.46-3.4,106.91-6.69c11.35-.71,22.69-1.54,33.81-2.3a40.65,40.65,0,0,0-35.4-47.17c-28.05-3.58-56.13-7.23-84.3-9.52-31-2.52-59.77-10.24-86.22-27.31-26.9-17.37-57-26.1-89-27.61-12.68-.6-25.41-.1-38.5-.1v8.05q0,45.48,0,91a37.05,37.05,0,0,1-.15,6.06c-1,5.57-4.29,9-10,9s-9.06-3.45-9.9-9.08a40.64,40.64,0,0,1-.12-6q0-61,0-122c0-8.89-2.88-12-11.49-12.05q-20.22-.18-40.44,0C218,552,215,555.05,215,563.38q0,113.22,0,226.43c0,8.79,2.78,11.51,11.8,11.57q19.55.12,39.08,0c9.83,0,12.43-2.64,12.45-12.32,0-16.39-.06-32.79,0-49.19.05-7.15,4.31-11.75,10.31-11.57,5.78.17,9.68,4.57,9.84,11.41C298.67,745.54,298.56,751.37,298.56,757.23Z" transform="translate(-194.77 -190.08)"/><path class="cls-1" d="M734.82,385.25C734,493.52,646.14,580.59,538.46,579.76,431.54,578.93,344.4,490.93,345,384.4c.62-108.25,88.42-195.15,196.33-194.31C648.48,190.92,735.58,278.77,734.82,385.25Zm-20.22-.34c.17-96-78.06-174.38-174.28-174.61-96.51-.23-175.09,78.05-175.1,174.45,0,96.09,78.24,174.57,174.26,174.79C635.79,559.76,714.44,481.33,714.6,384.91Z" transform="translate(-194.77 -190.08)"/><path class="cls-1" d="M550.08,322.61c0,16.41-.08,31.17.13,45.93,0,1.28,1.73,2.83,3,3.71s3.3,1.33,5,2c20.49,7.77,31.58,22.72,31.39,42.31-.2,20.77-13.5,39.86-33,46.27-5.17,1.7-7.56,3.91-6.68,9.36a18.22,18.22,0,0,1-.18,5.36c-.8,5.71-4.25,9.06-9.9,9.06s-9.25-3.33-9.82-9.07a77,77,0,0,1-.07-9.3c-11.34-4.63-21.39-8.17-30.91-12.8-6.94-3.38-8.64-9.67-5.46-15s8.69-6,15.87-2.29c6,3.09,12.39,5.48,20.3,8.91V431.63c0-13.24-.24-26.49.13-39.73.14-5.17-1.32-7.95-6.22-10.21-10.92-5-21-11.33-25.28-23.67-7.32-20.85,4.25-45.71,25.25-52.56,5.24-1.7,6.8-4,6.17-9a16.82,16.82,0,0,1,.23-4.69c.85-5.38,4-8.49,9.5-8.62,5.79-.14,10.44,3.08,9.91,8.61-.93,9.7,4.13,12.28,12,14.43,5,1.36,9.67,4.68,13.9,7.9a9.68,9.68,0,0,1,1.78,13.79c-3.34,4.34-8.68,5.11-13.84,2.1C559.36,327.71,555.32,325.54,550.08,322.61Zm.37,120.13c11.18-3.17,19.52-15.49,18.86-27.35-.62-11.09-8.08-19.69-18.86-21.37Zm-21.07-81.15V324.7c-8.3,4.42-12,10.62-12.73,19C515.9,352.74,520.76,357.85,529.38,361.59Z" transform="translate(-194.77 -190.08)"/><path class="cls-1" d="M544.81,533.6c-75.47,2.75-142-53.49-152.09-128-5.41-39.82,3.59-76.18,27.23-108.78,5.15-7.09,13-8.07,17.4-2.24,3.77,4.93,2.32,9.55-1.05,14.14-12.74,17.31-20.34,36.65-23.71,57.91-10.49,66.19,37,132.81,103.19,144.42,36.29,6.37,69.5-.88,99.6-22.22,6.45-4.58,11.71-4.73,15.69-.53,4.52,4.76,3.8,11.13-2.22,15.67a145.21,145.21,0,0,1-72.28,28.64C552.34,533.14,548.07,533.35,544.81,533.6Z" transform="translate(-194.77 -190.08)"/><path class="cls-1" d="M688.54,384.57A146.31,146.31,0,0,1,667,462c-5,8.23-10.39,10.52-16.18,6.81-5.53-3.54-5.92-9.18-1.19-17.14,42.85-72.11,8.9-163.72-70.43-189.15-36.35-11.65-71.32-7.33-104.5,11.52-1.56.89-3,1.92-4.64,2.72-5.7,2.82-11.23,1.41-14-3.52s-1.36-10.5,4-13.92a148.08,148.08,0,0,1,57.52-21.63c71.88-11.1,142,32.25,163.78,101.9,4.49,14.41,6,29.73,8.95,44.63Z" transform="translate(-194.77 -190.08)"/></svg>